<?xml version="1.0" encoding="UTF-8" standalone="no"?><!DOCTYPE svg PUBLIC "-//W3C//DTD SVG 1.1//EN" "http://www.w3.org/Graphics/SVG/1.1/DTD/svg11.dtd"><svg width="100%" height="100%" viewBox="0 0 1081 96" version="1.1" xmlns="http://www.w3.org/2000/svg" xmlns:xlink="http://www.w3.org/1999/xlink" xml:space="preserve" xmlns:serif="http://www.serif.com/" style="fill-rule:evenodd;clip-rule:evenodd;stroke-miterlimit:10;"><rect id="Artboard1" x="0" y="0" width="1080.75" height="95.25" style="fill:none;"/><g id="Artboard11" serif:id="Artboard1"><rect x="0" y="0" width="1080.75" height="95.25" style="fill:none;"/><clipPath id="_clip1"><rect x="0" y="0" width="1080.75" height="95.25"/></clipPath><g clip-path="url(#_clip1)"><g id="Layer-1" serif:id="Layer 1"><path d="M252.955,-60.944c-6.651,8.516 -10.855,19.737 -6.241,30.388c3.984,9.197 13.033,15.721 22.68,18.752c8.594,2.699 17.623,2.788 26.645,2.439c9.522,-0.367 19.104,-1.18 28.619,-0.885c14.107,0.437 27.982,3.32 41.857,5.734c8.173,1.422 16.562,2.684 24.772,1.951c0.845,-0.075 1.689,-0.172 2.531,-0.293c9.019,-1.294 17.794,-6.01 21.313,-13.498c3.848,-8.191 0.949,-17.689 -5.658,-23.856c-4.842,-4.52 -11.612,-7.269 -18.753,-8.766c-2.769,-0.581 -5.564,-1.005 -8.358,-1.357c-9.986,-1.256 -20.473,-1.762 -29.616,-5.233c-6.699,-2.541 -12.345,-6.415 -18.79,-9.577c-5.415,-2.656 -10.445,-4.162 -16.8,-3.226c-3.262,0.481 -6.206,1.465 -9.317,1.877c-8.18,1.065 -16.807,-4.859 -25.345,-6.823c-1.208,-0.276 -2.425,-0.467 -3.642,-0.547c-10.033,-0.659 -20.241,5.679 -25.897,12.92Z" style="fill:none;fill-rule:nonzero;stroke:#fff;stroke-opacity:0.11;stroke-width:1.5px;"/><path d="M210.874,-76.138c-7.682,14.64 -8.287,32.868 0.036,47.734c7.953,14.203 22.516,24.07 38.148,28.44c13.497,3.803 27.457,3.689 41.491,2.766c14.797,-0.974 29.712,-2.837 44.494,-2.486c21.944,0.522 43.423,5.938 64.901,10.413c12.653,2.636 25.737,4.952 38.464,3.28c1.31,-0.172 2.618,-0.387 3.921,-0.649c13.952,-2.8 27.327,-12.288 30.578,-25.746c3.557,-14.719 -5.713,-29.67 -18.549,-37.441c-9.291,-5.625 -20.269,-8.186 -31.499,-9.59c-4.352,-0.546 -8.727,-0.934 -13.072,-1.304c-15.557,-1.326 -31.806,-2.754 -45.287,-10.296c-9.876,-5.524 -17.577,-13.876 -26.973,-20.218c-8.044,-5.429 -15.387,-8.169 -25.429,-5.526c-5.157,1.357 -9.777,3.946 -14.783,5.492c-13.131,4.046 -27.521,-5.178 -41.23,-8.095c-1.982,-0.42 -3.955,-0.706 -5.91,-0.8c-16.175,-0.778 -31.94,9.996 -39.301,24.026Z" style="fill:none;fill-rule:nonzero;stroke:#fff;stroke-opacity:0.11;stroke-width:1.5px;"/><path d="M341.097,-117.325c-10.661,-8.208 -20.327,-12.177 -34.058,-7.827c-7.052,2.234 -13.347,6.427 -20.247,9.108c-20.724,8.052 -44.164,-9.57 -65.294,-10.42c-22.316,-0.899 -43.834,14.31 -52.706,35.13c-8.872,20.821 -5.675,45.94 6.315,65.082c11.99,19.142 32.005,32.393 53.614,38.128c37.809,10.034 77.639,-1.79 116.708,-0.994c29.779,0.606 58.863,8.555 87.946,15.09c18.896,4.248 38.582,7.913 57.465,3.607c18.884,-4.308 36.859,-18.569 39.844,-37.994c3.266,-21.249 -12.379,-41.674 -31.442,-51.027c-19.063,-9.355 -40.906,-10.271 -62.032,-11.666c-21.126,-1.394 -43.137,-3.746 -60.956,-15.359c-13.053,-8.507 -22.798,-21.341 -35.157,-30.858Z" style="fill:none;fill-rule:nonzero;stroke:#fff;stroke-opacity:0.11;stroke-width:1.5px;"/><path d="M160.516,-153.307c5.434,12.292 4.563,26.568 1.367,39.646c-3.196,13.077 -8.566,25.513 -11.99,38.53c-3.424,13.018 -4.802,27.178 -0.019,39.747c6.699,17.611 24.581,29.936 27.922,48.509c2.783,15.479 -5.385,30.583 -13.253,44.136c-10.814,18.625 -21.628,37.25 -32.442,55.875c-2.891,4.98 -5.954,10.145 -10.754,13.253c-5.922,3.836 -13.397,3.869 -20.421,3.778c-26.94,-0.351 -53.88,-0.701 -80.82,-1.051c-7.964,-0.104 -17.058,-0.745 -21.966,-7.117c-3.571,-4.636 -3.804,-10.99 -3.883,-16.876c-1.122,-84.062 -2.245,-168.123 -3.367,-252.184c-0.17,-12.751 0.407,-27.275 9.959,-35.548c7.83,-6.781 19.114,-6.98 29.401,-6.834c27.104,0.385 54.208,0.769 81.312,1.154c7.006,0.1 15.896,-1.298 21.793,3.158c3.941,2.978 6.681,7.262 9.65,11.238c5.725,7.665 13.444,11.386 17.511,20.586Z" style="fill:none;fill-rule:nonzero;stroke:#fff;stroke-opacity:0.11;stroke-width:1.5px;"/><path d="M5.188,-174.02c6.543,-5.743 16.279,-5.802 25.141,-5.489c7.009,0.249 13.984,0.544 20.688,0.842c15.822,0.704 31.509,1.868 46.84,3.407c5.795,0.581 12.949,0.366 17.656,4.641c3.147,2.849 5.3,6.744 7.611,10.391c4.465,6.982 10.47,10.797 13.469,18.997c0.916,2.504 1.554,5.093 1.975,7.729c1.437,9.005 0.262,18.616 -1.977,27.661c-2.915,11.76 -7.483,23.023 -10.225,34.782c-2.742,11.674 -3.614,24.217 0.581,35.459c5.879,15.752 20.98,27.221 24.475,43.682c2.913,13.718 -2.916,27.132 -8.631,39.328c-7.854,16.762 -16.348,33.357 -24.642,50.488c-2.462,5.087 -5.111,10.489 -9.521,13.995c-5.443,4.326 -12.51,5.39 -19.525,5.458c-23.248,0.227 -46.444,-1.244 -69.082,-2.915c-6.691,-0.492 -14.278,-1.425 -18.377,-7.02c-3.188,-4.354 -3.548,-10.159 -3.749,-15.584c-0.417,-11.268 -0.553,-22.611 -0.68,-33.917c-0.637,-56.602 -1.276,-113.203 -1.914,-169.806c-0.11,-9.915 -0.238,-19.764 -0.149,-29.533c0.108,-11.709 1.099,-24.753 10.036,-32.596Z" style="fill:none;fill-rule:nonzero;stroke:#fff;stroke-opacity:0.11;stroke-width:1.5px;"/><path d="M9.526,-165.432c5.266,-4.696 13.445,-4.623 20.881,-4.143c5.889,0.383 11.709,0.861 16.985,1.338c12.676,1.145 25.163,3.292 36.76,6.004c4.637,1.086 10.002,2.032 13.52,6.128c2.352,2.718 3.905,6.23 5.573,9.541c3.179,6.312 7.489,10.215 9.426,17.41c0.599,2.225 0.968,4.514 1.18,6.834c0.723,7.934 -0.545,16.324 -2.553,24.299c-2.634,10.445 -6.399,20.534 -8.459,31.034c-2.059,10.33 -2.427,21.256 1.181,31.17c5.057,13.894 17.378,24.507 21.029,38.856c3.042,11.957 -0.449,23.68 -4.01,34.52c-4.892,14.898 -10.893,29.615 -16.842,45.101c-2.009,5.231 -4.267,10.835 -8.288,14.737c-4.963,4.817 -11.618,6.896 -18.63,7.14c-19.548,0.679 -39.007,-1.79 -57.343,-4.78c-5.419,-0.883 -11.486,-2.118 -14.786,-6.924c-2.801,-4.08 -3.293,-9.328 -3.617,-14.293c-0.671,-10.305 -0.778,-20.762 -0.87,-31.145c-0.458,-52.008 -0.918,-104.016 -1.376,-156.024c-0.08,-9.194 -0.193,-18.256 0.128,-27.157c0.385,-10.668 1.793,-22.227 10.111,-29.646Z" style="fill:none;fill-rule:nonzero;stroke:#fff;stroke-opacity:0.11;stroke-width:1.5px;"/><path d="M13.864,-156.843c3.996,-3.639 10.612,-3.445 16.622,-2.798c4.768,0.517 9.437,1.188 13.283,1.834c9.539,1.603 18.917,4.983 26.678,8.603c3.557,1.659 7.045,3.702 9.384,7.612c1.549,2.592 2.519,5.709 3.533,8.692c1.914,5.627 4.499,9.639 5.384,15.822c0.278,1.948 0.382,3.936 0.386,5.94c0.009,6.862 -1.352,14.031 -3.129,20.937c-2.352,9.128 -5.296,18.047 -6.693,27.286c-1.359,8.989 -1.241,18.294 1.782,26.882c4.236,12.035 13.775,21.792 17.581,34.029c3.171,10.196 2.02,20.229 0.613,29.711c-1.932,13.034 -5.231,25.994 -9.044,39.715c-1.503,5.41 -3.423,11.18 -7.056,15.48c-4.482,5.305 -10.723,8.372 -17.733,8.819c-15.846,1.011 -31.57,-2.333 -45.604,-6.643c-4.148,-1.272 -8.675,-2.826 -11.197,-6.829c-2.402,-3.814 -3.036,-8.497 -3.483,-13.001c-0.925,-9.344 -1.003,-18.914 -1.06,-28.374c-0.279,-47.414 -0.559,-94.827 -0.84,-142.242c-0.047,-8.473 -0.147,-16.747 0.407,-24.781c0.662,-9.627 2.494,-19.691 10.186,-26.694Z" style="fill:none;fill-rule:nonzero;stroke:#fff;stroke-opacity:0.11;stroke-width:1.5px;"/><path d="M18.202,-148.254c2.739,-2.568 7.779,-2.267 12.363,-1.453c3.647,0.65 7.167,1.536 9.58,2.33c6.412,2.111 12.586,7.24 16.597,11.202c2.476,2.446 4.1,5.363 5.247,9.095c0.756,2.46 1.14,5.186 1.495,7.844c0.66,4.938 1.488,9.069 1.34,14.234c-0.047,1.673 -0.202,3.357 -0.407,5.047c-0.706,5.79 -2.159,11.738 -3.705,17.575c-2.071,7.811 -4.23,15.554 -4.927,23.537c-0.695,7.642 -0.054,15.333 2.382,22.594c3.414,10.175 10.174,19.076 14.135,29.201c3.3,8.436 4.487,16.778 5.234,24.904c1.029,11.17 0.667,22.434 -1.244,34.328c-0.901,5.614 -2.58,11.525 -5.823,16.222c-4.003,5.796 -9.832,9.798 -16.837,10.5c-12.152,1.219 -24.133,-2.878 -33.866,-8.507c-2.876,-1.662 -5.839,-3.553 -7.607,-6.732c-1.982,-3.565 -2.781,-7.668 -3.35,-11.71c-1.179,-8.382 -1.229,-17.067 -1.249,-25.603c-0.101,-42.82 -0.203,-85.641 -0.304,-128.461c-0.016,-7.751 -0.101,-15.238 0.685,-22.406c0.94,-8.584 3.212,-17.134 10.261,-23.741Z" style="fill:none;fill-rule:nonzero;stroke:#fff;stroke-opacity:0.11;stroke-width:1.5px;"/><path d="M43.037,-123.147c-0.967,-4.03 -3.318,-11.009 -6.517,-13.8c-2.268,-1.98 -11.286,-5.384 -13.981,-2.718c-11.64,11.519 -11.266,25.373 -11.297,40.819c-0.079,38.227 -0.156,76.454 -0.235,114.68c-0.022,11.287 0.037,22.983 4.657,33.249c4.62,10.265 15.158,18.702 26.144,17.009c12.639,-1.948 20.22,-16.164 20.532,-29.147c0.784,-32.578 -30.148,-59.128 -30.081,-91.716c0.024,-11.659 4.085,-22.853 7.441,-34.002c3.356,-11.148 6.057,-23.049 3.337,-34.374Z" style="fill:none;fill-rule:nonzero;stroke:#fff;stroke-opacity:0.11;stroke-width:1.5px;"/><path d="M926.884,61.728c2.948,-1.737 6.09,-5.621 4.414,-9.215c-1.077,-2.309 -3.525,-3.708 -6.002,-4.152c-2.478,-0.445 -5.019,-0.082 -7.509,0.283c-19.455,2.845 -45.993,2.371 -59.515,19.948c-1.643,2.136 -2.407,5.203 -1.159,7.599c1.166,2.239 3.804,3.356 6.298,3.381c2.493,0.026 4.9,-0.85 7.243,-1.715c9.724,-3.585 19.791,-8.396 29.877,-10.243c8.955,-1.638 18.158,-1.103 26.353,-5.886Z" style="fill:none;fill-rule:nonzero;stroke:#fff;stroke-opacity:0.11;stroke-width:1.5px;"/><path d="M945.307,44.327c-5.03,-3.912 -11.983,-4.782 -18.649,-4.981c-7.039,-0.186 -14.127,0.356 -21.169,0.98c-4.778,0.416 -9.593,0.854 -14.433,1.325c-5.629,0.546 -11.35,0.929 -16.962,1.938c-5.688,1.025 -11.418,1.975 -17.173,2.864c-2.671,0.414 -5.225,1.044 -7.845,1.556c-3.509,0.681 -7.428,0.597 -10.993,0.892c-7.289,0.596 -14.573,1.248 -21.823,1.983c-14.501,1.471 -28.868,3.278 -42.878,5.658c-15.358,2.609 -31.068,5.942 -43.181,16.312c-2.643,2.262 -4.906,5.201 -5.589,8.639c-0.406,2.065 -0.102,4.388 1.01,6.206c1.222,1.997 2.917,2.234 4.914,2.773c5.476,1.475 11.416,2.465 17.303,2.891c7.873,0.571 15.683,0.336 23.448,0.026c32.649,-1.26 65.665,-5.006 98.615,-7.891c4.972,-0.439 9.95,-0.859 14.924,-1.292c15.648,-1.362 31.389,-2.872 46.335,-7.632c7.629,-2.43 15.46,-6.931 18.163,-13.929c2.425,-6.275 1.805,-13.79 -4.017,-18.318Z" style="fill:none;fill-rule:nonzero;stroke:#fff;stroke-opacity:0.11;stroke-width:1.5px;"/><path d="M957.953,35.554c-9.153,-5.334 -20.441,-5.855 -31.296,-5.809c-11.601,0.071 -23.235,0.791 -34.828,1.675c-7.973,0.602 -15.97,1.269 -23.981,2.009c-9.318,0.861 -18.77,1.408 -27.972,3.207c-9.334,1.824 -18.718,3.496 -28.136,5.024c-4.385,0.712 -8.533,1.853 -12.812,2.749c-5.692,1.19 -12.201,0.836 -18.005,1.221c-11.944,0.788 -23.883,1.617 -35.797,2.509c-23.829,1.783 -47.556,3.82 -71.017,6.286c-25.718,2.703 -52.522,6.163 -73.344,22.104c-4.226,3.236 -8.109,7.388 -9.404,12.602c-0.771,3.117 -0.328,6.749 1.406,9.488c2.164,3.419 5.145,3.417 8.683,4.058c9.592,1.736 19.54,3.056 29.454,3.89c13.251,1.116 26.465,1.522 39.653,1.765c55.572,1.068 111.539,-1.614 167.352,-5.538c8.387,-0.592 16.775,-1.213 25.158,-1.886c26.368,-2.117 52.913,-4.792 78.067,-12.998c12.844,-4.192 26.527,-12.073 29.268,-24.937c2.258,-10.6 -2.699,-21.737 -12.449,-27.419Z" style="fill:none;fill-rule:nonzero;stroke:#fff;stroke-opacity:0.11;stroke-width:1.5px;"/><path d="M970.319,26.012c-13.286,-6.692 -28.898,-6.929 -43.942,-6.637c-16.163,0.329 -32.343,1.227 -48.488,2.37c-11.167,0.787 -22.347,1.683 -33.53,2.695c-13.007,1.175 -26.188,1.887 -38.98,4.473c-12.979,2.625 -26.017,5.018 -39.101,7.185c-6.098,1.01 -11.84,2.662 -17.778,3.943c-7.874,1.698 -16.975,1.072 -25.017,1.549c-16.598,0.979 -33.192,1.986 -49.77,3.034c-33.157,2.097 -66.246,4.362 -99.158,6.915c-36.077,2.797 -73.949,6.431 -103.504,27.896c-5.807,4.218 -11.313,9.576 -13.22,16.566c-1.134,4.169 -0.552,9.109 1.802,12.77c3.11,4.836 7.371,4.608 12.451,5.342c13.707,2.018 27.665,3.646 41.605,4.889c18.631,1.661 37.249,2.708 55.858,3.506c78.496,3.393 157.413,1.777 236.09,-3.186c11.801,-0.746 23.6,-1.568 35.391,-2.481c37.089,-2.872 74.438,-6.71 109.799,-18.364c18.059,-5.952 37.684,-17.24 40.372,-35.943c2.151,-14.96 -7.201,-29.631 -20.88,-36.522Z" style="fill:none;fill-rule:nonzero;stroke:#fff;stroke-opacity:0.11;stroke-width:1.5px;"/><path d="M982.621,16.176c-17.418,-8.028 -37.356,-8.003 -56.588,-7.466c-20.725,0.587 -41.453,1.663 -62.148,3.067c-14.362,0.972 -28.723,2.098 -43.078,3.378c-16.695,1.491 -33.608,2.367 -49.99,5.742c-16.624,3.426 -33.317,6.54 -50.065,9.345c-7.81,1.308 -15.147,3.471 -22.743,5.138c-10.058,2.205 -21.75,1.309 -32.03,1.875c-21.252,1.171 -42.502,2.355 -63.745,3.561c-42.484,2.41 -84.934,4.905 -127.296,7.542c-46.437,2.892 -95.32,6.791 -133.667,33.689c-7.376,5.216 -14.515,11.763 -17.034,20.529c-1.499,5.221 -0.772,11.466 2.198,16.053c4.063,6.248 9.599,5.789 16.22,6.627c17.825,2.275 35.79,4.236 53.755,5.887c24.009,2.206 48.031,3.894 72.063,5.246c101.42,5.72 203.287,5.168 304.827,-0.833c15.216,-0.901 30.425,-1.923 45.626,-3.076c47.809,-3.627 95.962,-8.629 141.53,-23.729c23.275,-7.713 48.867,-22.422 51.476,-46.951c2.057,-19.337 -11.699,-37.506 -29.311,-45.624Z" style="fill:none;fill-rule:nonzero;stroke:#fff;stroke-opacity:0.11;stroke-width:1.5px;"/><path d="M925.666,-2.067c-42.87,1.432 -85.702,4.043 -128.434,7.826c-20.384,1.805 -41.027,2.845 -60.999,7.009c-20.269,4.226 -40.616,8.062 -61.028,11.505c-9.524,1.607 -18.454,4.28 -27.71,6.332c-12.24,2.713 -26.523,1.546 -39.042,2.203c-25.906,1.363 -51.812,2.725 -77.719,4.086c-51.811,2.724 -103.623,5.448 -155.435,8.172c-56.797,2.985 -116.786,7.014 -163.829,39.481c-8.966,6.188 -17.719,13.949 -20.849,24.491c-1.863,6.275 -1.001,13.829 2.594,19.335c5.006,7.669 11.827,6.971 19.988,7.913c193.609,22.337 389.272,26.267 583.598,11.72c58.529,-4.381 117.486,-10.548 173.262,-29.095c28.491,-9.474 60.062,-27.611 62.581,-57.956c1.969,-23.722 -16.194,-45.372 -37.744,-54.727c-21.549,-9.355 -45.812,-9.077 -69.234,-8.295Z" style="fill:none;fill-rule:nonzero;stroke:#fff;stroke-opacity:0.11;stroke-width:1.5px;"/><path d="M398.643,-139.801c27.141,8.978 55.311,14.691 81.984,25.017c26.672,10.325 43.396,35.612 59.18,59.771c6.828,10.452 13.796,21.53 19.734,32.529c5.938,10.999 20.246,12.652 30.852,19.077c10.606,6.424 24.908,7.771 35.033,0.59c10.717,-7.599 14.106,-22.837 11.106,-35.759c-2.999,-12.921 3.426,-28.467 -5.292,-38.358c-8.719,-9.89 -17.007,-31.005 -23.667,-42.428c-11.246,-19.283 -28.987,-27.593 -20.781,-48.398c2.857,-7.247 6.897,-15.297 3.689,-22.391c-2.99,-6.613 -10.896,-9.039 -17.937,-10.385c-34.044,-6.509 -68.976,-4.718 -103.096,0.209c-17.234,2.489 -34.429,5.633 -51.458,9.295c-12.321,2.65 -27.117,4.491 -34.579,16.117c-4.22,6.577 -5.968,16.194 -3.198,23.712c2.943,7.987 10.9,8.911 18.43,11.402Z" style="fill:none;fill-rule:nonzero;stroke:#fff;stroke-opacity:0.11;stroke-width:1.5px;"/><path d="M681.659,-54.03c-4.241,-4.91 -12.239,-5.294 -17.867,-1.823c-5.632,3.473 -9.049,9.953 -10.417,16.558c-1.369,6.608 -0.786,13.42 -0.499,20.161c0.249,5.86 0.625,12.432 4.736,16.717c3.569,3.721 9.126,4.229 14.301,4.295c6.692,0.086 13.555,-0.44 20.355,-1.305c6.463,-0.821 12.899,-1.876 19.216,-3.317c3.688,-0.842 7.418,-1.809 10.609,-3.894c3.274,-2.138 5.942,-5.602 6.324,-9.569c0.337,-3.503 -1.034,-6.589 -3.201,-9.312c-2.197,-2.759 -5.151,-5.093 -7.978,-7.03c-4.07,-2.79 -8.215,-5.46 -12.397,-8.029c-7.607,-4.693 -15.32,-9.093 -22.962,-13.285" style="fill:none;fill-rule:nonzero;stroke:#fff;stroke-opacity:0.11;stroke-width:1.5px;"/><path d="M683.348,-61.765c-6.032,-7.539 -17.712,-8.325 -25.859,-3.356c-8.147,4.967 -12.992,14.416 -14.797,24.026c-1.805,9.612 -0.961,19.519 -0.11,29.271c0.678,7.767 1.707,16.3 7.276,21.549c5.222,4.924 12.926,5.491 19.987,5.533c9.131,0.054 18.264,-0.341 27.358,-1.18c9.094,-0.839 18.151,-2.123 27.128,-3.848c5.239,-1.008 10.559,-2.206 15.14,-5.025c4.582,-2.82 8.369,-7.556 8.834,-13.054c0.819,-9.686 -8.152,-16.867 -16.098,-22.044c-16.176,-10.541 -32.353,-21.081 -48.529,-31.621" style="fill:none;fill-rule:nonzero;stroke:#fff;stroke-opacity:0.11;stroke-width:1.5px;"/></g></g></g></svg>